<svg width="44" height="44" viewBox="0 0 44 44" fill="none" xmlns="http://www.w3.org/2000/svg">
<path d="M11.0001 38.5H5.50008C5.01385 38.5 4.54754 38.3068 4.20372 37.963C3.8599 37.6192 3.66675 37.1529 3.66675 36.6667V22C3.66675 21.5138 3.8599 21.0475 4.20372 20.7036C4.54754 20.3598 5.01385 20.1667 5.50008 20.1667H11.0001C11.4863 20.1667 11.9526 20.3598 12.2964 20.7036C12.6403 21.0475 12.8334 21.5138 12.8334 22V36.6667C12.8334 37.1529 12.6403 37.6192 12.2964 37.963C11.9526 38.3068 11.4863 38.5 11.0001 38.5ZM23.8334 38.5H18.3334C17.8472 38.5 17.3809 38.3068 17.0371 37.963C16.6932 37.6192 16.5001 37.1529 16.5001 36.6667V5.5C16.5001 5.01377 16.6932 4.54746 17.0371 4.20364C17.3809 3.85982 17.8472 3.66667 18.3334 3.66667H23.8334C24.3196 3.66667 24.786 3.85982 25.1298 4.20364C25.4736 4.54746 25.6667 5.01377 25.6667 5.5V36.6667C25.6667 37.1529 25.4736 37.6192 25.1298 37.963C24.786 38.3068 24.3196 38.5 23.8334 38.5ZM36.6668 38.5H31.1667C30.6805 38.5 30.2142 38.3068 29.8704 37.963C29.5266 37.6192 29.3334 37.1529 29.3334 36.6667V16.5C29.3334 16.0138 29.5266 15.5475 29.8704 15.2036C30.2142 14.8598 30.6805 14.6667 31.1667 14.6667H36.6668C37.153 14.6667 37.6193 14.8598 37.9631 15.2036C38.3069 15.5475 38.5001 16.0138 38.5001 16.5V36.6667C38.5001 37.1529 38.3069 37.6192 37.9631 37.963C37.6193 38.3068 37.153 38.5 36.6668 38.5Z" fill="#46AEFF"/>
</svg>
