<svg width="33" height="33" viewBox="0 0 33 33" fill="none" xmlns="http://www.w3.org/2000/svg">
<path d="M22.2449 11.8238C25.0081 11.9085 27.6247 13.0865 29.5199 15.0991C31.4152 17.1116 32.4341 19.7942 32.3528 22.5575C32.181 28.2786 27.555 32.8436 21.7782 32.6702C19.0151 32.5855 16.3984 31.4075 14.5032 29.395C12.6079 27.3824 11.5891 24.6998 11.6703 21.9365C11.6957 21.0917 11.8416 20.2617 12.069 19.4771C11.5555 19.4427 11.0753 19.2107 10.7292 18.8298C10.3831 18.4488 10.1981 17.9485 10.2131 17.4341L10.2967 14.6499L7.51253 14.5663C6.41477 14.5334 5.55057 13.6157 5.58353 12.5179L5.66712 9.73374L3.67842 9.67404C2.94001 9.65187 2.24065 9.33728 1.73419 8.79947C1.22773 8.26166 0.955667 7.54468 0.977836 6.80627L1.09725 2.82888C1.11942 2.09047 1.43401 1.39111 1.97182 0.884649C2.50963 0.378191 3.2266 0.10612 3.96501 0.128289L7.42057 0.232035C8.58197 0.266903 9.6802 0.761669 10.4749 1.6072L20.0983 11.8231C20.1479 11.873 20.2087 11.9103 20.2757 11.9317C20.3427 11.9531 20.4139 11.958 20.4832 11.9461C21.0658 11.8543 21.6552 11.8134 22.2449 11.8238ZM24.3462 26.6962C24.8736 26.712 25.3857 26.5177 25.7699 26.1559C26.154 25.7942 26.3788 25.2946 26.3946 24.7672C26.4104 24.2398 26.2161 23.7276 25.8543 23.3435C25.4926 22.9593 24.993 22.7346 24.4656 22.7188C23.9382 22.703 23.426 22.8973 23.0419 23.259C22.6577 23.6208 22.433 24.1203 22.4172 24.6478C22.4014 25.1752 22.5957 25.6873 22.9575 26.0715C23.3192 26.4556 23.8188 26.6803 24.3462 26.6962Z" fill="#FF3232"/>
</svg>
