<svg width="43" height="40" viewBox="0 0 43 40" fill="none" xmlns="http://www.w3.org/2000/svg">
<g clip-path="url(#clip0_24_87)">
<path d="M34.0786 19.865C38.9302 19.865 42.8632 17.6566 42.8632 14.9325C42.8632 12.2084 38.9302 10 34.0786 10C29.227 10 25.2939 12.2084 25.2939 14.9325C25.2939 17.6566 29.227 19.865 34.0786 19.865Z" fill="#FF864D"/>
<path fill-rule="evenodd" clip-rule="evenodd" d="M34.2099 22.7025C27.9269 22.7025 25.4253 20.1 25.4253 18.5925V25.05C25.4253 27.775 29.3585 29.98 34.2099 29.98C39.0664 29.98 42.9996 27.775 42.9996 25.05V18.7475C42.9996 20.2575 40.4955 22.7025 34.2099 22.7025Z" fill="#FF864D"/>
<path fill-rule="evenodd" clip-rule="evenodd" d="M34.2099 32.68C28.5896 32.68 25.4253 30.1775 25.4253 28.67V35.0675C25.4253 37.7925 29.3585 40 34.2099 40C39.0664 40 42.9996 37.7925 42.9996 35.0675V28.5925C42.9996 30.1 39.8328 32.68 34.2099 32.68Z" fill="#FF864D"/>
<path d="M12.4876 9.865C17.9874 9.865 22.4459 7.65664 22.4459 4.9325C22.4459 2.20836 17.9874 0 12.4876 0C6.98778 0 2.5293 2.20836 2.5293 4.9325C2.5293 7.65664 6.98778 9.865 12.4876 9.865Z" fill="#FF864D"/>
<path fill-rule="evenodd" clip-rule="evenodd" d="M12.804 12.7025C5.6837 12.7025 2.8457 10.1 2.8457 8.5925V15.05C2.8457 17.775 7.30506 19.98 12.804 19.98C18.308 19.98 22.7648 17.775 22.7648 15.05V8.7475C22.7648 10.2575 19.9243 12.7025 12.804 12.7025Z" fill="#FF864D"/>
<path fill-rule="evenodd" clip-rule="evenodd" d="M12.804 22.68C6.43241 22.68 2.8457 20.1775 2.8457 18.67V25.0675C2.8457 27.7925 7.30506 30 12.804 30C18.308 30 22.7648 27.7925 22.7648 25.0675V18.5925C22.7648 20.1 19.1731 22.68 12.804 22.68Z" fill="#FF864D"/>
<path fill-rule="evenodd" clip-rule="evenodd" d="M12.804 32.68C6.43241 32.68 2.8457 30.1775 2.8457 28.67V35.0675C2.8457 37.7925 7.30506 40 12.804 40C18.308 40 22.7648 37.7925 22.7648 35.0675V28.5925C22.7648 30.1 19.1731 32.68 12.804 32.68Z" fill="#FF864D"/>
</g>
<defs>
<clipPath id="clip0_24_87">
<rect width="43" height="40" fill="white"/>
</clipPath>
</defs>
</svg>
